<svg id="Layer_2" height="512" viewBox="0 0 128 128" width="512" xmlns="http://www.w3.org/2000/svg" data-name="Layer 2"><path d="m29.878 57.292a28.128 28.128 0 1 0 26.551 37.417h15.142a28.128 28.128 0 1 0 27.669-37.388z" fill="#284cb2"/><g fill="#e8f3fc"><path d="m75.742 75.209h-23.484l-10.008-8.958v-8.959h43.5v8.959z"/><path d="m43.295 80.754h-8.75v-8.75h-9.333v8.75h-8.75v9.333h8.75v8.75h9.333v-8.75h8.75z"/><circle cx="99.167" cy="73.759" r="3.917"/><circle cx="99.167" cy="97.082" r="3.917"/><circle cx="110.828" cy="85.421" r="3.917"/><circle cx="87.505" cy="85.421" r="3.917"/></g><path d="m68 57.292h-8v-6.5a14.8 14.8 0 0 1 14.781-14.778h21.188a6.781 6.781 0 1 0 0-13.562h-94.219v-8h94.219a14.781 14.781 0 1 1 0 29.562h-21.188a6.789 6.789 0 0 0 -6.781 6.781z" fill="#06daf7"/><path d="m126.25 83.671a1.75 1.75 0 0 0 -1.75 1.75 26.379 26.379 0 0 1 -51.278 8.71 1.748 1.748 0 0 0 -1.651-1.172h-15.142a1.75 1.75 0 0 0 -1.652 1.172 26.378 26.378 0 1 1 -24.9-35.089h10.623v7.2a1.749 1.749 0 0 0 .583 1.3l10.008 8.958a1.75 1.75 0 0 0 1.167.446h23.484a1.749 1.749 0 0 0 1.167-.446l10.008-8.958a1.749 1.749 0 0 0 .583-1.3v-7.177h11.672a26.447 26.447 0 0 1 19.028 9.256 1.75 1.75 0 0 0 2.664-2.271 29.989 29.989 0 0 0 -21.623-10.48l-29.491-.028v-4.747a5.037 5.037 0 0 1 5.031-5.031h21.188a16.531 16.531 0 1 0 0-33.062h-94.219a1.75 1.75 0 0 0 -1.75 1.749v8a1.75 1.75 0 0 0 1.75 1.749h12.917a1.75 1.75 0 0 0 0-3.5h-11.167v-4.5h92.469a13.031 13.031 0 1 1 0 26.062h-21.188a8.541 8.541 0 0 0 -8.531 8.531v4.747h-4.5v-4.745a13.046 13.046 0 0 1 13.031-13.031h21.188a8.531 8.531 0 1 0 0-17.062h-56.677a1.75 1.75 0 0 0 0 3.5h56.677a5.031 5.031 0 1 1 0 10.062h-21.188a16.55 16.55 0 0 0 -16.531 16.531v4.747h-28.372a29.878 29.878 0 1 0 27.766 40.917h12.712a29.879 29.879 0 0 0 57.644-11.038 1.75 1.75 0 0 0 -1.75-1.75zm-42.25-18.202-8.927 7.99h-22.146l-8.927-7.99v-6.421l40 .016z"/><path d="m54.583 68h18.834a1.75 1.75 0 0 0 0-3.5h-18.834a1.75 1.75 0 0 0 0 3.5z"/><path d="m55.876 83.671a1.75 1.75 0 0 0 0 3.5h3.792a1.75 1.75 0 0 0 0-3.5z"/><path d="m68.332 83.671a1.75 1.75 0 0 0 0 3.5h3.792a1.75 1.75 0 0 0 0-3.5z"/><path d="m25.211 100.587h9.333a1.75 1.75 0 0 0 1.75-1.75v-7h7a1.75 1.75 0 0 0 1.75-1.75v-9.333a1.75 1.75 0 0 0 -1.749-1.754h-7v-7a1.75 1.75 0 0 0 -1.75-1.75h-9.334a1.75 1.75 0 0 0 -1.75 1.75v7h-7a1.75 1.75 0 0 0 -1.75 1.75v9.333a1.75 1.75 0 0 0 1.75 1.75h7v7a1.75 1.75 0 0 0 1.75 1.754zm-7-12.25v-5.837h7a1.75 1.75 0 0 0 1.75-1.75v-7h5.833v7a1.75 1.75 0 0 0 1.75 1.75h7v5.833h-7a1.75 1.75 0 0 0 -1.75 1.75v7h-5.833v-7a1.75 1.75 0 0 0 -1.75-1.75z"/><path d="m99.167 68.093a5.667 5.667 0 1 0 5.666 5.666 5.673 5.673 0 0 0 -5.666-5.666zm0 7.833a2.167 2.167 0 1 1 2.166-2.167 2.169 2.169 0 0 1 -2.166 2.167z"/><path d="m99.167 91.415a5.667 5.667 0 1 0 5.666 5.667 5.673 5.673 0 0 0 -5.666-5.667zm0 7.834a2.167 2.167 0 1 1 2.166-2.167 2.169 2.169 0 0 1 -2.166 2.167z"/><path d="m110.828 79.754a5.667 5.667 0 1 0 5.667 5.667 5.673 5.673 0 0 0 -5.667-5.667zm0 7.833a2.167 2.167 0 1 1 2.172-2.166 2.169 2.169 0 0 1 -2.172 2.166z"/><path d="m81.839 85.421a5.667 5.667 0 1 0 5.661-5.667 5.673 5.673 0 0 0 -5.661 5.667zm7.833 0a2.167 2.167 0 1 1 -2.172-2.167 2.169 2.169 0 0 1 2.172 2.167z"/><path d="m29 24.2a1.75 1.75 0 0 0 0-3.5h-4.042a1.75 1.75 0 0 0 0 3.5z"/></svg>